<?xml version="1.0" encoding="UTF-8" standalone="no"?>
<!DOCTYPE svg PUBLIC "-//W3C//DTD SVG 1.1//EN"
 "http://www.w3.org/Graphics/SVG/1.1/DTD/svg11.dtd">
<!-- Generated by graphviz version 2.47.0 (20210316.0004)
 -->
<!-- Title: dbml Pages: 1 -->
<svg width="2227pt" height="1008pt"
 viewBox="0.00 0.00 2226.78 1007.63" xmlns="http://www.w3.org/2000/svg" xmlns:xlink="http://www.w3.org/1999/xlink">
<g id="graph0" class="graph" transform="scale(1 1) rotate(0) translate(4 1003.63)">
<title>dbml</title>
<!-- business_type -->
<g id="business_type" class="node">
<title>business_type</title>
<ellipse fill="none" stroke="black" stroke-width="0" cx="1967.75" cy="-572.53" rx="251.05" ry="257.27"/>
<polygon fill="#29235c" stroke="transparent" points="1792.75,-692.53 1792.75,-752.53 2143.75,-752.53 2143.75,-692.53 1792.75,-692.53"/>
<polygon fill="none" stroke="#29235c" points="1792.75,-692.53 1792.75,-752.53 2143.75,-752.53 2143.75,-692.53 1792.75,-692.53"/>
<text text-anchor="start" x="1803.75" y="-713.73" font-family="Helvetica,sans-Serif" font-weight="bold" font-size="32.00" fill="#ffffff"> &#160;&#160;&#160;&#160;&#160;&#160;business_type &#160;&#160;&#160;&#160;&#160;&#160;</text>
<polygon fill="#e7e2dd" stroke="transparent" points="1792.75,-632.53 1792.75,-692.53 2143.75,-692.53 2143.75,-632.53 1792.75,-632.53"/>
<polygon fill="none" stroke="#29235c" points="1792.75,-632.53 1792.75,-692.53 2143.75,-692.53 2143.75,-632.53 1792.75,-632.53"/>
<text text-anchor="start" x="1909.57" y="-653.73" font-family="Helvetica,sans-Serif" font-style="italic" font-size="32.00" fill="#1d71b8"> &#160;&#160;&#160;bar &#160;&#160;&#160;</text>
<polygon fill="#e7e2dd" stroke="transparent" points="1792.75,-572.53 1792.75,-632.53 2143.75,-632.53 2143.75,-572.53 1792.75,-572.53"/>
<polygon fill="none" stroke="#29235c" points="1792.75,-572.53 1792.75,-632.53 2143.75,-632.53 2143.75,-572.53 1792.75,-572.53"/>
<text text-anchor="start" x="1860.66" y="-593.73" font-family="Helvetica,sans-Serif" font-style="italic" font-size="32.00" fill="#1d71b8"> &#160;&#160;&#160;restaurant &#160;&#160;&#160;</text>
<polygon fill="#e7e2dd" stroke="transparent" points="1792.75,-512.53 1792.75,-572.53 2143.75,-572.53 2143.75,-512.53 1792.75,-512.53"/>
<polygon fill="none" stroke="#29235c" points="1792.75,-512.53 1792.75,-572.53 2143.75,-572.53 2143.75,-512.53 1792.75,-512.53"/>
<text text-anchor="start" x="1903.34" y="-533.73" font-family="Helvetica,sans-Serif" font-style="italic" font-size="32.00" fill="#1d71b8"> &#160;&#160;&#160;club &#160;&#160;&#160;</text>
<polygon fill="#e7e2dd" stroke="transparent" points="1792.75,-452.53 1792.75,-512.53 2143.75,-512.53 2143.75,-452.53 1792.75,-452.53"/>
<polygon fill="none" stroke="#29235c" points="1792.75,-452.53 1792.75,-512.53 2143.75,-512.53 2143.75,-452.53 1792.75,-452.53"/>
<text text-anchor="start" x="1898" y="-473.73" font-family="Helvetica,sans-Serif" font-style="italic" font-size="32.00" fill="#1d71b8"> &#160;&#160;&#160;hotel &#160;&#160;&#160;</text>
<polygon fill="#e7e2dd" stroke="transparent" points="1792.75,-392.53 1792.75,-452.53 2143.75,-452.53 2143.75,-392.53 1792.75,-392.53"/>
<polygon fill="none" stroke="#29235c" points="1792.75,-392.53 1792.75,-452.53 2143.75,-452.53 2143.75,-392.53 1792.75,-392.53"/>
<text text-anchor="start" x="1902.45" y="-413.73" font-family="Helvetica,sans-Serif" font-style="italic" font-size="32.00" fill="#1d71b8"> &#160;&#160;&#160;cafe &#160;&#160;&#160;</text>
<polygon fill="none" stroke="#29235c" stroke-width="2" points="1791.25,-391.53 1791.25,-753.53 2144.25,-753.53 2144.25,-391.53 1791.25,-391.53"/>
</g>
<!-- staff_member_position_type -->
<g id="staff_member_position_type" class="node">
<title>staff_member_position_type</title>
<ellipse fill="none" stroke="black" stroke-width="0" cx="1290.41" cy="-172.53" rx="390.15" ry="172.57"/>
<polygon fill="#29235c" stroke="transparent" points="1016.41,-232.53 1016.41,-292.53 1564.41,-292.53 1564.41,-232.53 1016.41,-232.53"/>
<polygon fill="none" stroke="#29235c" points="1016.41,-232.53 1016.41,-292.53 1564.41,-292.53 1564.41,-232.53 1016.41,-232.53"/>
<text text-anchor="start" x="1027.22" y="-253.73" font-family="Helvetica,sans-Serif" font-weight="bold" font-size="32.00" fill="#ffffff"> &#160;&#160;&#160;&#160;&#160;&#160;staff_member_position_type &#160;&#160;&#160;&#160;&#160;&#160;</text>
<polygon fill="#e7e2dd" stroke="transparent" points="1016.41,-172.53 1016.41,-232.53 1564.41,-232.53 1564.41,-172.53 1016.41,-172.53"/>
<polygon fill="none" stroke="#29235c" points="1016.41,-172.53 1016.41,-232.53 1564.41,-232.53 1564.41,-172.53 1016.41,-172.53"/>
<text text-anchor="start" x="1204.16" y="-193.73" font-family="Helvetica,sans-Serif" font-style="italic" font-size="32.00" fill="#1d71b8"> &#160;&#160;&#160;kitchen &#160;&#160;&#160;</text>
<polygon fill="#e7e2dd" stroke="transparent" points="1016.41,-112.53 1016.41,-172.53 1564.41,-172.53 1564.41,-112.53 1016.41,-112.53"/>
<polygon fill="none" stroke="#29235c" points="1016.41,-112.53 1016.41,-172.53 1564.41,-172.53 1564.41,-112.53 1016.41,-112.53"/>
<text text-anchor="start" x="1204.17" y="-133.73" font-family="Helvetica,sans-Serif" font-style="italic" font-size="32.00" fill="#1d71b8"> &#160;&#160;&#160;service &#160;&#160;&#160;</text>
<polygon fill="#e7e2dd" stroke="transparent" points="1016.41,-52.53 1016.41,-112.53 1564.41,-112.53 1564.41,-52.53 1016.41,-52.53"/>
<polygon fill="none" stroke="#29235c" points="1016.41,-52.53 1016.41,-112.53 1564.41,-112.53 1564.41,-52.53 1016.41,-52.53"/>
<text text-anchor="start" x="1232.62" y="-73.73" font-family="Helvetica,sans-Serif" font-style="italic" font-size="32.00" fill="#1d71b8"> &#160;&#160;&#160;PR &#160;&#160;&#160;</text>
<polygon fill="none" stroke="#29235c" stroke-width="2" points="1015.41,-51.53 1015.41,-293.53 1565.41,-293.53 1565.41,-51.53 1015.41,-51.53"/>
</g>
<!-- business -->
<g id="business" class="node">
<title>business</title>
<ellipse fill="none" stroke="black" stroke-width="0" cx="1290.41" cy="-662.53" rx="294.31" ry="299.63"/>
<polygon fill="#1d71b8" stroke="transparent" points="1084.41,-812.53 1084.41,-872.53 1496.41,-872.53 1496.41,-812.53 1084.41,-812.53"/>
<polygon fill="none" stroke="#29235c" points="1084.41,-812.53 1084.41,-872.53 1496.41,-872.53 1496.41,-812.53 1084.41,-812.53"/>
<text text-anchor="start" x="1165.03" y="-833.73" font-family="Helvetica,sans-Serif" font-weight="bold" font-size="32.00" fill="#ffffff"> &#160;&#160;&#160;&#160;&#160;&#160;business &#160;&#160;&#160;&#160;&#160;&#160;</text>
<polygon fill="#e7e2dd" stroke="transparent" points="1084.41,-752.53 1084.41,-812.53 1496.41,-812.53 1496.41,-752.53 1084.41,-752.53"/>
<polygon fill="none" stroke="#29235c" points="1084.41,-752.53 1084.41,-812.53 1496.41,-812.53 1496.41,-752.53 1084.41,-752.53"/>
<text text-anchor="start" x="1095.41" y="-773.73" font-family="Helvetica,sans-Serif" font-weight="bold" font-size="32.00" fill="#29235c">id</text>
<text text-anchor="start" x="1120.3" y="-773.73" font-family="Helvetica,sans-Serif" font-size="32.00" fill="#29235c"> &#160;&#160;&#160;</text>
<text text-anchor="start" x="1385.85" y="-773.73" font-family="Helvetica,sans-Serif" font-style="italic" font-size="32.00" fill="#29235c">uuid</text>
<text text-anchor="start" x="1446.32" y="-773.73" font-family="Helvetica,sans-Serif" font-size="32.00" fill="#29235c"> </text>
<text text-anchor="start" x="1455.21" y="-773.73" font-family="Helvetica,sans-Serif" font-weight="bold" font-size="32.00" fill="#29235c">(!)</text>
<polygon fill="#e7e2dd" stroke="transparent" points="1084.41,-692.53 1084.41,-752.53 1496.41,-752.53 1496.41,-692.53 1084.41,-692.53"/>
<polygon fill="none" stroke="#29235c" points="1084.41,-692.53 1084.41,-752.53 1496.41,-752.53 1496.41,-692.53 1084.41,-692.53"/>
<text text-anchor="start" x="1095.41" y="-712.73" font-family="Helvetica,sans-Serif" font-size="32.00" fill="#29235c">type &#160;&#160;&#160;</text>
<text text-anchor="start" x="1280.89" y="-713.73" font-family="Helvetica,sans-Serif" font-style="italic" font-size="32.00" fill="#29235c">business_type</text>
<polygon fill="#e7e2dd" stroke="transparent" points="1084.41,-632.53 1084.41,-692.53 1496.41,-692.53 1496.41,-632.53 1084.41,-632.53"/>
<polygon fill="none" stroke="#29235c" points="1084.41,-632.53 1084.41,-692.53 1496.41,-692.53 1496.41,-632.53 1084.41,-632.53"/>
<text text-anchor="start" x="1095.41" y="-652.73" font-family="Helvetica,sans-Serif" font-size="32.00" fill="#29235c">name &#160;&#160;&#160;</text>
<text text-anchor="start" x="1264.97" y="-653.73" font-family="Helvetica,sans-Serif" font-style="italic" font-size="32.00" fill="#29235c">varchar(255)</text>
<text text-anchor="start" x="1446.32" y="-653.73" font-family="Helvetica,sans-Serif" font-size="32.00" fill="#29235c"> </text>
<text text-anchor="start" x="1455.21" y="-653.73" font-family="Helvetica,sans-Serif" font-weight="bold" font-size="32.00" fill="#29235c">(!)</text>
<polygon fill="#e7e2dd" stroke="transparent" points="1084.41,-572.53 1084.41,-632.53 1496.41,-632.53 1496.41,-572.53 1084.41,-572.53"/>
<polygon fill="none" stroke="#29235c" points="1084.41,-572.53 1084.41,-632.53 1496.41,-632.53 1496.41,-572.53 1084.41,-572.53"/>
<text text-anchor="start" x="1095.41" y="-592.73" font-family="Helvetica,sans-Serif" font-size="32.00" fill="#29235c">location &#160;&#160;&#160;</text>
<text text-anchor="start" x="1394.74" y="-593.73" font-family="Helvetica,sans-Serif" font-style="italic" font-size="32.00" fill="#29235c">text</text>
<text text-anchor="start" x="1446.32" y="-593.73" font-family="Helvetica,sans-Serif" font-size="32.00" fill="#29235c"> </text>
<text text-anchor="start" x="1455.21" y="-593.73" font-family="Helvetica,sans-Serif" font-weight="bold" font-size="32.00" fill="#29235c">(!)</text>
<polygon fill="#e7e2dd" stroke="transparent" points="1084.41,-512.53 1084.41,-572.53 1496.41,-572.53 1496.41,-512.53 1084.41,-512.53"/>
<polygon fill="none" stroke="#29235c" points="1084.41,-512.53 1084.41,-572.53 1496.41,-572.53 1496.41,-512.53 1084.41,-512.53"/>
<text text-anchor="start" x="1095.41" y="-532.73" font-family="Helvetica,sans-Serif" font-size="32.00" fill="#29235c">created_on &#160;&#160;&#160;</text>
<text text-anchor="start" x="1298.76" y="-533.73" font-family="Helvetica,sans-Serif" font-style="italic" font-size="32.00" fill="#29235c">timestamp</text>
<text text-anchor="start" x="1446.32" y="-533.73" font-family="Helvetica,sans-Serif" font-size="32.00" fill="#29235c"> </text>
<text text-anchor="start" x="1455.21" y="-533.73" font-family="Helvetica,sans-Serif" font-weight="bold" font-size="32.00" fill="#29235c">(!)</text>
<polygon fill="#e7e2dd" stroke="transparent" points="1084.41,-452.53 1084.41,-512.53 1496.41,-512.53 1496.41,-452.53 1084.41,-452.53"/>
<polygon fill="none" stroke="#29235c" points="1084.41,-452.53 1084.41,-512.53 1496.41,-512.53 1496.41,-452.53 1084.41,-452.53"/>
<text text-anchor="start" x="1095.13" y="-472.73" font-family="Helvetica,sans-Serif" font-size="32.00" fill="#29235c">updated_on &#160;&#160;&#160;</text>
<text text-anchor="start" x="1299.08" y="-473.73" font-family="Helvetica,sans-Serif" font-style="italic" font-size="32.00" fill="#29235c">timestamp</text>
<text text-anchor="start" x="1446.64" y="-473.73" font-family="Helvetica,sans-Serif" font-size="32.00" fill="#29235c"> </text>
<text text-anchor="start" x="1455.53" y="-473.73" font-family="Helvetica,sans-Serif" font-weight="bold" font-size="32.00" fill="#29235c">(!)</text>
<polygon fill="none" stroke="#29235c" stroke-width="2" points="1083.41,-451.53 1083.41,-873.53 1497.41,-873.53 1497.41,-451.53 1083.41,-451.53"/>
</g>
<!-- business&#45;&gt;business_type -->
<g id="edge3" class="edge">
<title>business:e&#45;&gt;business_type:w</title>
<path fill="none" stroke="#29235c" stroke-width="3" d="M1497.41,-722.53C1628.23,-722.53 1660.93,-722.53 1791.75,-722.53"/>
</g>
<!-- staff_member -->
<g id="staff_member" class="node">
<title>staff_member</title>
<ellipse fill="none" stroke="black" stroke-width="0" cx="432.04" cy="-572.53" rx="432.08" ry="427.19"/>
<polygon fill="#1d71b8" stroke="transparent" points="129.04,-812.53 129.04,-872.53 736.04,-872.53 736.04,-812.53 129.04,-812.53"/>
<polygon fill="none" stroke="#29235c" points="129.04,-812.53 129.04,-872.53 736.04,-872.53 736.04,-812.53 129.04,-812.53"/>
<text text-anchor="start" x="272.5" y="-833.73" font-family="Helvetica,sans-Serif" font-weight="bold" font-size="32.00" fill="#ffffff"> &#160;&#160;&#160;&#160;&#160;&#160;staff_member &#160;&#160;&#160;&#160;&#160;&#160;</text>
<polygon fill="#e7e2dd" stroke="transparent" points="129.04,-752.53 129.04,-812.53 736.04,-812.53 736.04,-752.53 129.04,-752.53"/>
<polygon fill="none" stroke="#29235c" points="129.04,-752.53 129.04,-812.53 736.04,-812.53 736.04,-752.53 129.04,-752.53"/>
<text text-anchor="start" x="140.04" y="-773.73" font-family="Helvetica,sans-Serif" font-weight="bold" font-size="32.00" fill="#29235c">id</text>
<text text-anchor="start" x="164.93" y="-773.73" font-family="Helvetica,sans-Serif" font-size="32.00" fill="#29235c"> &#160;&#160;&#160;</text>
<text text-anchor="start" x="625.48" y="-773.73" font-family="Helvetica,sans-Serif" font-style="italic" font-size="32.00" fill="#29235c">uuid</text>
<text text-anchor="start" x="685.95" y="-773.73" font-family="Helvetica,sans-Serif" font-size="32.00" fill="#29235c"> </text>
<text text-anchor="start" x="694.84" y="-773.73" font-family="Helvetica,sans-Serif" font-weight="bold" font-size="32.00" fill="#29235c">(!)</text>
<polygon fill="#e7e2dd" stroke="transparent" points="129.04,-692.53 129.04,-752.53 736.04,-752.53 736.04,-692.53 129.04,-692.53"/>
<polygon fill="none" stroke="#29235c" points="129.04,-692.53 129.04,-752.53 736.04,-752.53 736.04,-692.53 129.04,-692.53"/>
<text text-anchor="start" x="140.04" y="-712.73" font-family="Helvetica,sans-Serif" font-size="32.00" fill="#29235c">business_id &#160;&#160;&#160;</text>
<text text-anchor="start" x="625.48" y="-713.73" font-family="Helvetica,sans-Serif" font-style="italic" font-size="32.00" fill="#29235c">uuid</text>
<text text-anchor="start" x="685.95" y="-713.73" font-family="Helvetica,sans-Serif" font-size="32.00" fill="#29235c"> </text>
<text text-anchor="start" x="694.84" y="-713.73" font-family="Helvetica,sans-Serif" font-weight="bold" font-size="32.00" fill="#29235c">(!)</text>
<polygon fill="#e7e2dd" stroke="transparent" points="129.04,-632.53 129.04,-692.53 736.04,-692.53 736.04,-632.53 129.04,-632.53"/>
<polygon fill="none" stroke="#29235c" points="129.04,-632.53 129.04,-692.53 736.04,-692.53 736.04,-632.53 129.04,-632.53"/>
<text text-anchor="start" x="140.04" y="-652.73" font-family="Helvetica,sans-Serif" font-size="32.00" fill="#29235c">email &#160;&#160;&#160;</text>
<text text-anchor="start" x="504.61" y="-653.73" font-family="Helvetica,sans-Serif" font-style="italic" font-size="32.00" fill="#29235c">varchar(255)</text>
<text text-anchor="start" x="685.95" y="-653.73" font-family="Helvetica,sans-Serif" font-size="32.00" fill="#29235c"> </text>
<text text-anchor="start" x="694.84" y="-653.73" font-family="Helvetica,sans-Serif" font-weight="bold" font-size="32.00" fill="#29235c">(!)</text>
<polygon fill="#e7e2dd" stroke="transparent" points="129.04,-572.53 129.04,-632.53 736.04,-632.53 736.04,-572.53 129.04,-572.53"/>
<polygon fill="none" stroke="#29235c" points="129.04,-572.53 129.04,-632.53 736.04,-632.53 736.04,-572.53 129.04,-572.53"/>
<text text-anchor="start" x="140.04" y="-592.73" font-family="Helvetica,sans-Serif" font-size="32.00" fill="#29235c">first_name &#160;&#160;&#160;</text>
<text text-anchor="start" x="504.61" y="-593.73" font-family="Helvetica,sans-Serif" font-style="italic" font-size="32.00" fill="#29235c">varchar(255)</text>
<text text-anchor="start" x="685.95" y="-593.73" font-family="Helvetica,sans-Serif" font-size="32.00" fill="#29235c"> </text>
<text text-anchor="start" x="694.84" y="-593.73" font-family="Helvetica,sans-Serif" font-weight="bold" font-size="32.00" fill="#29235c">(!)</text>
<polygon fill="#e7e2dd" stroke="transparent" points="129.04,-512.53 129.04,-572.53 736.04,-572.53 736.04,-512.53 129.04,-512.53"/>
<polygon fill="none" stroke="#29235c" points="129.04,-512.53 129.04,-572.53 736.04,-572.53 736.04,-512.53 129.04,-512.53"/>
<text text-anchor="start" x="140.04" y="-532.73" font-family="Helvetica,sans-Serif" font-size="32.00" fill="#29235c">last_name &#160;&#160;&#160;</text>
<text text-anchor="start" x="504.61" y="-533.73" font-family="Helvetica,sans-Serif" font-style="italic" font-size="32.00" fill="#29235c">varchar(255)</text>
<text text-anchor="start" x="685.95" y="-533.73" font-family="Helvetica,sans-Serif" font-size="32.00" fill="#29235c"> </text>
<text text-anchor="start" x="694.84" y="-533.73" font-family="Helvetica,sans-Serif" font-weight="bold" font-size="32.00" fill="#29235c">(!)</text>
<polygon fill="#e7e2dd" stroke="transparent" points="129.04,-452.53 129.04,-512.53 736.04,-512.53 736.04,-452.53 129.04,-452.53"/>
<polygon fill="none" stroke="#29235c" points="129.04,-452.53 129.04,-512.53 736.04,-512.53 736.04,-452.53 129.04,-452.53"/>
<text text-anchor="start" x="140.04" y="-472.73" font-family="Helvetica,sans-Serif" font-size="32.00" fill="#29235c">phone_number &#160;&#160;&#160;</text>
<text text-anchor="start" x="543.7" y="-473.73" font-family="Helvetica,sans-Serif" font-style="italic" font-size="32.00" fill="#29235c">varchar(255)</text>
<polygon fill="#e7e2dd" stroke="transparent" points="129.04,-392.53 129.04,-452.53 736.04,-452.53 736.04,-392.53 129.04,-392.53"/>
<polygon fill="none" stroke="#29235c" points="129.04,-392.53 129.04,-452.53 736.04,-452.53 736.04,-392.53 129.04,-392.53"/>
<text text-anchor="start" x="139.63" y="-412.73" font-family="Helvetica,sans-Serif" font-size="32.00" fill="#29235c">position &#160;&#160;&#160;</text>
<text text-anchor="start" x="284.56" y="-413.73" font-family="Helvetica,sans-Serif" font-style="italic" font-size="32.00" fill="#29235c">staff_member_position_type</text>
<text text-anchor="start" x="686.44" y="-413.73" font-family="Helvetica,sans-Serif" font-size="32.00" fill="#29235c"> </text>
<text text-anchor="start" x="695.33" y="-413.73" font-family="Helvetica,sans-Serif" font-weight="bold" font-size="32.00" fill="#29235c">(!)</text>
<polygon fill="#e7e2dd" stroke="transparent" points="129.04,-332.53 129.04,-392.53 736.04,-392.53 736.04,-332.53 129.04,-332.53"/>
<polygon fill="none" stroke="#29235c" points="129.04,-332.53 129.04,-392.53 736.04,-392.53 736.04,-332.53 129.04,-332.53"/>
<text text-anchor="start" x="140.04" y="-352.73" font-family="Helvetica,sans-Serif" font-size="32.00" fill="#29235c">created_on &#160;&#160;&#160;</text>
<text text-anchor="start" x="538.39" y="-353.73" font-family="Helvetica,sans-Serif" font-style="italic" font-size="32.00" fill="#29235c">timestamp</text>
<text text-anchor="start" x="685.95" y="-353.73" font-family="Helvetica,sans-Serif" font-size="32.00" fill="#29235c"> </text>
<text text-anchor="start" x="694.84" y="-353.73" font-family="Helvetica,sans-Serif" font-weight="bold" font-size="32.00" fill="#29235c">(!)</text>
<polygon fill="#e7e2dd" stroke="transparent" points="129.04,-272.53 129.04,-332.53 736.04,-332.53 736.04,-272.53 129.04,-272.53"/>
<polygon fill="none" stroke="#29235c" points="129.04,-272.53 129.04,-332.53 736.04,-332.53 736.04,-272.53 129.04,-272.53"/>
<text text-anchor="start" x="140.04" y="-292.73" font-family="Helvetica,sans-Serif" font-size="32.00" fill="#29235c">updated_on &#160;&#160;&#160;</text>
<text text-anchor="start" x="538.39" y="-293.73" font-family="Helvetica,sans-Serif" font-style="italic" font-size="32.00" fill="#29235c">timestamp</text>
<text text-anchor="start" x="685.95" y="-293.73" font-family="Helvetica,sans-Serif" font-size="32.00" fill="#29235c"> </text>
<text text-anchor="start" x="694.84" y="-293.73" font-family="Helvetica,sans-Serif" font-weight="bold" font-size="32.00" fill="#29235c">(!)</text>
<polygon fill="none" stroke="#29235c" stroke-width="2" points="127.54,-271.53 127.54,-873.53 736.54,-873.53 736.54,-271.53 127.54,-271.53"/>
</g>
<!-- staff_member&#45;&gt;staff_member_position_type -->
<g id="edge4" class="edge">
<title>staff_member:e&#45;&gt;staff_member_position_type:w</title>
<path fill="none" stroke="#29235c" stroke-width="3" d="M737.04,-422.53C879.74,-422.53 872.71,-262.53 1015.41,-262.53"/>
</g>
<!-- staff_member&#45;&gt;business -->
<!-- staff_member&#45;&gt;business -->
<g id="edge2" class="edge">
<title>staff_member:e&#45;&gt;business:w</title>
<path fill="none" stroke="#29235c" stroke-width="3" d="M737.04,-722.53C889.77,-722.53 925.59,-779.87 1073.06,-782.44"/>
<polygon fill="#29235c" stroke="#29235c" stroke-width="3" points="1073.38,-785.95 1083.41,-782.53 1073.44,-778.95 1073.38,-785.95"/>
<text text-anchor="middle" x="1074.51" y="-792.13" font-family="Helvetica,sans-Serif" font-size="32.00" fill="#29235c">1</text>
<text text-anchor="middle" x="743.26" y="-722.53" font-family="Helvetica,sans-Serif" font-size="32.00" fill="#29235c">*</text>
</g>
</g>
</svg>
